{
	"asset":{
		"generator":"Khronos glTF Blender I/O v3.6.27",
		"version":"2.0"
	},
	"scene":0,
	"scenes":[
		{
			"name":"Scene",
			"nodes":[
				0,
				1,
				2,
				3
			]
		}
	],
	"nodes":[
		{
			"mesh":0,
			"name":"Sphere_red",
			"scale":[
				0.9764952063560486,
				0.9764952063560486,
				0.9764952063560486
			],
			"translation":[
				0.06923211365938187,
				7.429549217224121,
				0.3666132986545563
			]
		},
		{
			"mesh":1,
			"name":"Sphere_yellow",
			"scale":[
				0.9764952063560486,
				0.9764952063560486,
				0.9764952063560486
			],
			"translation":[
				0.06923211365938187,
				6.60761022567749,
				0.3666132986545563
			]
		},
		{
			"mesh":2,
			"name":"Sphere_green",
			"scale":[
				0.9764952063560486,
				0.9764952063560486,
				0.9764952063560486
			],
			"translation":[
				0.06923211365938187,
				5.739315509796143,
				0.3666132986545563
			]
		},
		{
			"mesh":3,
			"name":"Cube",
			"scale":[
				0.40541544556617737,
				1.1384457349777222,
				0.45621412992477417
			],
			"translation":[
				0.058950185775756836,
				6.689730644226074,
				-0.08960184454917908
			]
		}
	],
	"materials":[
		{
			"doubleSided":true,
			"name":"red",
			"pbrMetallicRoughness":{
				"baseColorFactor":[
					0.5870104432106018,
					0.0016249549807980657,
					0.002402918180450797,
					1
				],
				"metallicFactor":0,
				"roughnessFactor":0.5
			}
		},
		{
			"doubleSided":true,
			"name":"black",
			"pbrMetallicRoughness":{
				"baseColorFactor":[
					0.01960577815771103,
					0.01960577815771103,
					0.01960577815771103,
					1
				],
				"metallicFactor":0,
				"roughnessFactor":0.5
			}
		},
		{
			"doubleSided":true,
			"name":"trafficlight",
			"pbrMetallicRoughness":{
				"baseColorFactor":[
					0.11493774503469467,
					0.11493774503469467,
					0.11493774503469467,
					1
				],
				"metallicFactor":0,
				"roughnessFactor":0.5
			}
		}
	],
	"meshes":[
		{
			"name":"Sphere",
			"primitives":[
				{
					"attributes":{
						"POSITION":0,
						"NORMAL":1,
						"TEXCOORD_0":2
					},
					"indices":3,
					"material":0
				}
			]
		},
		{
			"name":"Sphere.001",
			"primitives":[
				{
					"attributes":{
						"POSITION":4,
						"NORMAL":5,
						"TEXCOORD_0":6
					},
					"indices":3,
					"material":1
				}
			]
		},
		{
			"name":"Sphere.002",
			"primitives":[
				{
					"attributes":{
						"POSITION":7,
						"NORMAL":8,
						"TEXCOORD_0":9
					},
					"indices":10,
					"material":1
				}
			]
		},
		{
			"name":"Cube.001",
			"primitives":[
				{
					"attributes":{
						"POSITION":11,
						"NORMAL":12,
						"TEXCOORD_0":13
					},
					"indices":14,
					"material":2
				}
			]
		}
	],
	"accessors":[
		{
			"bufferView":0,
			"componentType":5126,
			"count":1984,
			"max":[
				0.35999995470046997,
				0.36000001430511475,
				0.3599999248981476
			],
			"min":[
				-0.3599999248981476,
				-0.36000001430511475,
				-0.36000001430511475
			],
			"type":"VEC3"
		},
		{
			"bufferView":1,
			"componentType":5126,
			"count":1984,
			"type":"VEC3"
		},
		{
			"bufferView":2,
			"componentType":5126,
			"count":1984,
			"type":"VEC2"
		},
		{
			"bufferView":3,
			"componentType":5123,
			"count":2880,
			"type":"SCALAR"
		},
		{
			"bufferView":4,
			"componentType":5126,
			"count":1984,
			"max":[
				0.35999995470046997,
				0.36000001430511475,
				0.3599999248981476
			],
			"min":[
				-0.3599999248981476,
				-0.36000001430511475,
				-0.36000001430511475
			],
			"type":"VEC3"
		},
		{
			"bufferView":5,
			"componentType":5126,
			"count":1984,
			"type":"VEC3"
		},
		{
			"bufferView":6,
			"componentType":5126,
			"count":1984,
			"type":"VEC2"
		},
		{
			"bufferView":7,
			"componentType":5126,
			"count":559,
			"max":[
				0.35999995470046997,
				0.36000001430511475,
				0.3599999248981476
			],
			"min":[
				-0.3599999248981476,
				-0.36000001430511475,
				-0.36000001430511475
			],
			"type":"VEC3"
		},
		{
			"bufferView":8,
			"componentType":5126,
			"count":559,
			"type":"VEC3"
		},
		{
			"bufferView":9,
			"componentType":5126,
			"count":559,
			"type":"VEC2"
		},
		{
			"bufferView":10,
			"componentType":5123,
			"count":2880,
			"type":"SCALAR"
		},
		{
			"bufferView":11,
			"componentType":5126,
			"count":331,
			"max":[
				1.0017222166061401,
				1,
				1.7978863716125488
			],
			"min":[
				-1,
				-6.870645523071289,
				-1.000000238418579
			],
			"type":"VEC3"
		},
		{
			"bufferView":12,
			"componentType":5126,
			"count":331,
			"type":"VEC3"
		},
		{
			"bufferView":13,
			"componentType":5126,
			"count":331,
			"type":"VEC2"
		},
		{
			"bufferView":14,
			"componentType":5123,
			"count":654,
			"type":"SCALAR"
		}
	],
	"bufferViews":[
		{
			"buffer":0,
			"byteLength":23808,
			"byteOffset":0,
			"target":34962
		},
		{
			"buffer":0,
			"byteLength":23808,
			"byteOffset":23808,
			"target":34962
		},
		{
			"buffer":0,
			"byteLength":15872,
			"byteOffset":47616,
			"target":34962
		},
		{
			"buffer":0,
			"byteLength":5760,
			"byteOffset":63488,
			"target":34963
		},
		{
			"buffer":0,
			"byteLength":23808,
			"byteOffset":69248,
			"target":34962
		},
		{
			"buffer":0,
			"byteLength":23808,
			"byteOffset":93056,
			"target":34962
		},
		{
			"buffer":0,
			"byteLength":15872,
			"byteOffset":116864,
			"target":34962
		},
		{
			"buffer":0,
			"byteLength":6708,
			"byteOffset":132736,
			"target":34962
		},
		{
			"buffer":0,
			"byteLength":6708,
			"byteOffset":139444,
			"target":34962
		},
		{
			"buffer":0,
			"byteLength":4472,
			"byteOffset":146152,
			"target":34962
		},
		{
			"buffer":0,
			"byteLength":5760,
			"byteOffset":150624,
			"target":34963
		},
		{
			"buffer":0,
			"byteLength":3972,
			"byteOffset":156384,
			"target":34962
		},
		{
			"buffer":0,
			"byteLength":3972,
			"byteOffset":160356,
			"target":34962
		},
		{
			"buffer":0,
			"byteLength":2648,
			"byteOffset":164328,
			"target":34962
		},
		{
			"buffer":0,
			"byteLength":1308,
			"byteOffset":166976,
			"target":34963
		}
	],
	"buffers":[
		{
			"byteLength":168284,
			"uri":"data:application/octet-stream;base64,"
		}
	]
}
